<?xml version="1.0" encoding="UTF-8" standalone="no"?>
<!DOCTYPE svg PUBLIC "-//W3C//DTD SVG 1.1//EN"
 "http://www.w3.org/Graphics/SVG/1.1/DTD/svg11.dtd">
<!-- Generated by graphviz version 13.1.1 (20250719.2154)
 -->
<!-- Title: IncomeStatementFlow Pages: 1 -->
<svg width="567pt" height="534pt"
 viewBox="0.00 0.00 567.00 534.00" xmlns="http://www.w3.org/2000/svg" xmlns:xlink="http://www.w3.org/1999/xlink">
<g id="graph0" class="graph" transform="scale(1 1) rotate(0) translate(4 529.6)">
<title>IncomeStatementFlow</title>
<polygon fill="white" stroke="none" points="-4,4 -4,-529.6 563.03,-529.6 563.03,4 -4,4"/>
<!-- Revenue -->
<g id="node1" class="node">
<title>Revenue</title>
<path fill="#e3f2fd" stroke="black" d="M273.03,-525.6C273.03,-525.6 81.03,-525.6 81.03,-525.6 75.03,-525.6 69.03,-519.6 69.03,-513.6 69.03,-513.6 69.03,-480 69.03,-480 69.03,-474 75.03,-468 81.03,-468 81.03,-468 273.03,-468 273.03,-468 279.03,-468 285.03,-474 285.03,-480 285.03,-480 285.03,-513.6 285.03,-513.6 285.03,-519.6 279.03,-525.6 273.03,-525.6"/>
<text xml:space="preserve" text-anchor="middle" x="177.03" y="-492.6" font-family="Times,serif" font-size="14.00">Revenue</text>
</g>
<!-- Gross_Profit -->
<g id="node2" class="node">
<title>Gross_Profit</title>
<path fill="#e3f2fd" stroke="black" d="M273.03,-432C273.03,-432 81.03,-432 81.03,-432 75.03,-432 69.03,-426 69.03,-420 69.03,-420 69.03,-386.4 69.03,-386.4 69.03,-380.4 75.03,-374.4 81.03,-374.4 81.03,-374.4 273.03,-374.4 273.03,-374.4 279.03,-374.4 285.03,-380.4 285.03,-386.4 285.03,-386.4 285.03,-420 285.03,-420 285.03,-426 279.03,-432 273.03,-432"/>
<text xml:space="preserve" text-anchor="middle" x="177.03" y="-399" font-family="Times,serif" font-size="14.00">Gross Profit</text>
</g>
<!-- Revenue&#45;&gt;Gross_Profit -->
<g id="edge1" class="edge">
<title>Revenue&#45;&gt;Gross_Profit</title>
<path fill="none" stroke="black" d="M177.03,-467.7C177.03,-467.7 177.03,-443.8 177.03,-443.8"/>
<polygon fill="black" stroke="black" points="180.53,-443.8 177.03,-433.8 173.53,-443.8 180.53,-443.8"/>
<text xml:space="preserve" text-anchor="middle" x="108.39" y="-458.75" font-family="Helvetica,sans-Serif" font-size="10.00"> &#160;&#45; Cost of Goods Sold (COGS)</text>
</g>
<!-- Operating_Income -->
<g id="node3" class="node">
<title>Operating_Income</title>
<path fill="#e3f2fd" stroke="black" d="M273.03,-338.4C273.03,-338.4 81.03,-338.4 81.03,-338.4 75.03,-338.4 69.03,-332.4 69.03,-326.4 69.03,-326.4 69.03,-292.8 69.03,-292.8 69.03,-286.8 75.03,-280.8 81.03,-280.8 81.03,-280.8 273.03,-280.8 273.03,-280.8 279.03,-280.8 285.03,-286.8 285.03,-292.8 285.03,-292.8 285.03,-326.4 285.03,-326.4 285.03,-332.4 279.03,-338.4 273.03,-338.4"/>
<text xml:space="preserve" text-anchor="middle" x="177.03" y="-305.4" font-family="Times,serif" font-size="14.00">Operating Income / EBIT</text>
</g>
<!-- Gross_Profit&#45;&gt;Operating_Income -->
<g id="edge2" class="edge">
<title>Gross_Profit&#45;&gt;Operating_Income</title>
<path fill="none" stroke="black" d="M177.03,-374.1C177.03,-374.1 177.03,-350.2 177.03,-350.2"/>
<polygon fill="black" stroke="black" points="180.53,-350.2 177.03,-340.2 173.53,-350.2 180.53,-350.2"/>
<text xml:space="preserve" text-anchor="middle" x="125.89" y="-365.15" font-family="Helvetica,sans-Serif" font-size="10.00"> &#160;&#45; Operating Expenses</text>
</g>
<!-- EBITDA -->
<g id="node4" class="node">
<title>EBITDA</title>
<path fill="#e3f2fd" stroke="black" d="M547.03,-338.4C547.03,-338.4 355.03,-338.4 355.03,-338.4 349.03,-338.4 343.03,-332.4 343.03,-326.4 343.03,-326.4 343.03,-292.8 343.03,-292.8 343.03,-286.8 349.03,-280.8 355.03,-280.8 355.03,-280.8 547.03,-280.8 547.03,-280.8 553.03,-280.8 559.03,-286.8 559.03,-292.8 559.03,-292.8 559.03,-326.4 559.03,-326.4 559.03,-332.4 553.03,-338.4 547.03,-338.4"/>
<text xml:space="preserve" text-anchor="middle" x="451.03" y="-305.4" font-family="Times,serif" font-size="14.00">EBITDA</text>
</g>
<!-- Operating_Income&#45;&gt;EBITDA -->
<g id="edge6" class="edge">
<title>Operating_Income&#45;&gt;EBITDA</title>
<path fill="none" stroke="black" d="M285.32,-310C285.32,-310 331.11,-310 331.11,-310"/>
<polygon fill="black" stroke="black" points="331.11,-313.5 341.11,-310 331.11,-306.5 331.11,-313.5"/>
<text xml:space="preserve" text-anchor="middle" x="319.97" y="-317.57" font-family="Helvetica,sans-Serif" font-size="10.00"> &#160;+ Depreciation &amp; Amortization</text>
</g>
<!-- EBT -->
<g id="node5" class="node">
<title>EBT</title>
<path fill="#e3f2fd" stroke="black" d="M273.03,-244.8C273.03,-244.8 81.03,-244.8 81.03,-244.8 75.03,-244.8 69.03,-238.8 69.03,-232.8 69.03,-232.8 69.03,-199.2 69.03,-199.2 69.03,-193.2 75.03,-187.2 81.03,-187.2 81.03,-187.2 273.03,-187.2 273.03,-187.2 279.03,-187.2 285.03,-193.2 285.03,-199.2 285.03,-199.2 285.03,-232.8 285.03,-232.8 285.03,-238.8 279.03,-244.8 273.03,-244.8"/>
<text xml:space="preserve" text-anchor="middle" x="177.03" y="-211.8" font-family="Times,serif" font-size="14.00">Income Before Taxes / EBT</text>
</g>
<!-- Operating_Income&#45;&gt;EBT -->
<g id="edge3" class="edge">
<title>Operating_Income&#45;&gt;EBT</title>
<path fill="none" stroke="black" d="M177.03,-280.5C177.03,-280.5 177.03,-256.6 177.03,-256.6"/>
<polygon fill="black" stroke="black" points="180.53,-256.6 177.03,-246.6 173.53,-256.6 180.53,-256.6"/>
<text xml:space="preserve" text-anchor="middle" x="88.51" y="-259.55" font-family="Helvetica,sans-Serif" font-size="10.00"> &#160;&#45; Interest Expense</text>
<text xml:space="preserve" text-anchor="middle" x="88.51" y="-247.55" font-family="Helvetica,sans-Serif" font-size="10.00"> &#160;+/&#45; Other Non&#45;Operating Gains/Losses</text>
</g>
<!-- Net_Profit -->
<g id="node6" class="node">
<title>Net_Profit</title>
<path fill="#e3f2fd" stroke="black" d="M273.03,-151.2C273.03,-151.2 81.03,-151.2 81.03,-151.2 75.03,-151.2 69.03,-145.2 69.03,-139.2 69.03,-139.2 69.03,-105.6 69.03,-105.6 69.03,-99.6 75.03,-93.6 81.03,-93.6 81.03,-93.6 273.03,-93.6 273.03,-93.6 279.03,-93.6 285.03,-99.6 285.03,-105.6 285.03,-105.6 285.03,-139.2 285.03,-139.2 285.03,-145.2 279.03,-151.2 273.03,-151.2"/>
<text xml:space="preserve" text-anchor="middle" x="177.03" y="-118.2" font-family="Times,serif" font-size="14.00">Net Profit</text>
</g>
<!-- EBT&#45;&gt;Net_Profit -->
<g id="edge4" class="edge">
<title>EBT&#45;&gt;Net_Profit</title>
<path fill="none" stroke="black" d="M177.03,-186.9C177.03,-186.9 177.03,-163 177.03,-163"/>
<polygon fill="black" stroke="black" points="180.53,-163 177.03,-153 173.53,-163 180.53,-163"/>
<text xml:space="preserve" text-anchor="middle" x="157.58" y="-177.95" font-family="Helvetica,sans-Serif" font-size="10.00"> &#160;&#45; Taxes</text>
</g>
<!-- EPS -->
<g id="node7" class="node">
<title>EPS</title>
<path fill="#e3f2fd" stroke="black" d="M273.03,-57.6C273.03,-57.6 81.03,-57.6 81.03,-57.6 75.03,-57.6 69.03,-51.6 69.03,-45.6 69.03,-45.6 69.03,-12 69.03,-12 69.03,-6 75.03,0 81.03,0 81.03,0 273.03,0 273.03,0 279.03,0 285.03,-6 285.03,-12 285.03,-12 285.03,-45.6 285.03,-45.6 285.03,-51.6 279.03,-57.6 273.03,-57.6"/>
<text xml:space="preserve" text-anchor="middle" x="177.03" y="-24.6" font-family="Times,serif" font-size="14.00">Earnings Per Share (EPS)</text>
</g>
<!-- Net_Profit&#45;&gt;EPS -->
<g id="edge5" class="edge">
<title>Net_Profit&#45;&gt;EPS</title>
<path fill="none" stroke="black" d="M177.03,-93.3C177.03,-93.3 177.03,-69.4 177.03,-69.4"/>
<polygon fill="black" stroke="black" points="180.53,-69.4 177.03,-59.4 173.53,-69.4 180.53,-69.4"/>
<text xml:space="preserve" text-anchor="middle" x="102.54" y="-84.35" font-family="Helvetica,sans-Serif" font-size="10.00"> &#160;/ Number of Shares Outstanding</text>
</g>
</g>
</svg>
